#!OML:ASF Y:\EmotionMaleHayes\Project 1\Capture day 1\Session 1\Male1.ASF
:FULLY-SPECIFIED
:DEGREES
272
root -28.9558 16.7782 2.37667 -110.587 84.0882 -106.034
lowerback 10.0875 1.20347 5.34361
upperback 8.06187 2.38507 2.95563
thorax 2.8548 1.53735 -0.0841673
lowerneck -23.9435 0.970108 3.33781
upperneck 19.7724 -0.517564 2.97044
head 10.2869 0.432183 0.442404
rclavicle -5.46658e-015 -2.42517e-014
rhumerus -22.9771 16.2146 -88.6339
rradius 27.5317
rwrist 5.85273
rhand -8.80834 -32.8944
rfingers 7.12502
rthumb 17.1309 -62.1592
lclavicle -5.46658e-015 -2.42517e-014
lhumerus -24.2068 -11.9997 94.4195
lradius 30.0665
lwrist 10.7124
lhand -27.6409 -25.9211
lfingers 7.12502
lthumb -1.03908 4.05614
rfemur 12.2595 -11.5 20.6488
rtibia 7.83143
rfoot -20.8981 -3.77976
rtoes 11.7948
lfemur -13.5454 6.35965 -1.75501
ltibia 44.628
lfoot -12.6752 10.1232
ltoes -6.13591
273
root -28.952 16.7735 2.38086 -110.158 84.0714 -105.795
lowerback 10.1545 1.28175 5.33026
upperback 7.9757 2.49372 3.07826
thorax 2.72509 1.58327 0.0371733
lowerneck -23.8196 0.98092 3.40792
upperneck 19.7916 -0.556696 3.13104
head 10.2736 0.441471 0.482104
rclavicle 5.36719e-015 7.95139e-015
rhumerus -22.7888 15.9095 -88.2973
rradius 27.2342
rwrist 5.99593
rhand -9.04831 -32.9367
rfingers 7.12502
rthumb 16.8999 -62.2214
lclavicle 5.36719e-015 7.95139e-015
lhumerus -24.2534 -11.3551 94.5208
lradius 30.072
lwrist 11.5544
lhand -27.4154 -25.5451
lfingers 7.12502
lthumb -0.821301 4.43303
rfemur 11.9745 -11.3745 20.8037
rtibia 7.95286
rfoot -20.9761 -3.90909
rtoes 11.7236
lfemur -14.3926 6.65029 -1.8991
ltibia 44.8545
lfoot -12.4835 9.31646
ltoes -6.4757
274
root -28.9189 16.7792 2.37016 -109.669 84.0742 -105.308
lowerback 10.2117 1.31847 5.68963
upperback 7.95491 2.5743 3.01405
thorax 2.6975 1.63942 -0.236819
lowerneck -23.7234 0.879582 3.48935
upperneck 19.9403 -0.778501 3.3739
head 10.3137 0.38352 0.522596
rclavicle 2.40529e-014 3.81667e-014
rhumerus -22.6464 15.2559 -88.1009
rradius 26.9454
rwrist 6.81841
rhand -9.53696 -32.7933
rfingers 7.12502
rthumb 16.4295 -62.1175
lclavicle 2.40529e-014 3.81667e-014
lhumerus -24.3406 -10.7649 94.3359
lradius 30.2259
lwrist 12.4384
lhand -26.602 -24.9763
lfingers 7.12502
lthumb -0.0356389 5.00347
rfemur 12.125 -11.3415 20.7733
rtibia 7.90083
rfoot -21.0433 -3.85183
rtoes 11.2564
lfemur -14.6752 6.74287 -2.09386
ltibia 44.4867
lfoot -12.1186 8.64807
ltoes -8.07228
275
root -28.9095 16.787 2.3708 -108.917 84.0552 -104.491
lowerback 10.6324 1.34836 5.84525
upperback 7.8896 2.66645 3.06144
thorax 2.4096 1.68533 -0.299768
lowerneck -23.6108 0.872254 3.49751
upperneck 19.9971 -0.84134 3.61561
head 10.3173 0.389047 0.598342
rclavicle -5.56597e-015 -1.31198e-014
rhumerus -22.379 14.402 -87.6992
rradius 26.6018
rwrist 8.38785
rhand -9.68795 -32.9141
rfingers 7.12502
rthumb 16.2841 -62.2504
lclavicle -5.56597e-015 -1.31198e-014
lhumerus -24.4329 -9.97263 94.2196
lradius 30.2977
lwrist 12.9583
lhand -25.8289 -24.3823
lfingers 7.12502
lthumb 0.710987 5.59622
rfemur 12.1987 -10.8579 21.07
rtibia 7.8528
rfoot -21.2699 -4.18869
rtoes 11.8183
lfemur -15.0265 6.90569 -2.20208
ltibia 44.1457
lfoot -11.6932 7.92794
ltoes -10.7419
276
root -28.8905 16.787 2.37072 -109.488 84.2719 -105.311
lowerback 10.5523 1.40024 5.63729
upperback 7.76472 2.7076 3.08079
thorax 2.31023 1.68834 -0.169595
lowerneck -23.341 0.844765 3.48759
upperneck 20.1402 -0.892041 3.74721
head 10.3225 0.38561 0.639214
rclavicle 2.44505e-014 2.18663e-014
rhumerus -22.1352 13.7525 -87.389
rradius 26.1399
rwrist 9.18112
rhand -9.29881 -33.185
rfingers 7.12502
rthumb 16.6588 -62.4902
lclavicle 2.44505e-014 2.18663e-014
lhumerus -24.6975 -9.82084 94.3498
lradius 30.1857
lwrist 12.8842
lhand -26.2874 -23.9672
lfingers 7.12502
lthumb 0.268188 6.01242
rfemur 12.0561 -10.6989 20.9175
rtibia 7.74878
rfoot -21.4039 -4.34383
rtoes 12.2869
lfemur -15.702 6.98904 -2.70873
ltibia 43.7783
lfoot -11.4846 7.29257
ltoes -11.1458
277
root -28.8486 16.7932 2.36843 -115.471 84.2099 -111.504
lowerback 10.1842 1.24058 5.58209
upperback 7.71688 2.45953 3.10912
thorax 2.44499 1.56088 -0.078439
lowerneck -23.2074 0.83601 3.47875
upperneck 20.1792 -0.962276 4.0471
head 10.3169 0.393431 0.737256
rclavicle 7.55382e-015 3.26007e-014
rhumerus -22.0991 13.6256 -87.3248
rradius 25.8206
rwrist 8.31444
rhand -9.0439 -33.4472
rfingers 7.12502
rthumb 16.9042 -62.7315
lclavicle 7.55382e-015 3.26007e-014
lhumerus -24.9527 -9.75524 94.4099
lradius 30.1223
lwrist 12.9606
lhand -26.1433 -23.6978
lfingers 7.12502
lthumb 0.407304 6.28151
rfemur 12.3437 -10.9414 20.7379
rtibia 7.24579
rfoot -21.4075 -4.68864
rtoes 11.7149
lfemur -16.378 6.4497 -3.23481
ltibia 43.2372
lfoot -11.3792 6.75211
ltoes -10.3663
278
root -28.821 16.8048 2.35952 -114.084 84.1285 -110.171
lowerback 10.2527 1.27636 5.91174
upperback 7.67238 2.53982 3.14766
thorax 2.37988 1.61134 -0.230769
lowerneck -23.1063 0.828951 3.52435
upperneck 20.2668 -1.03232 4.26255
head 10.3341 0.396641 0.796966
rclavicle 4.79071e-014 2.14687e-014
rhumerus -21.9947 12.8574 -87.0064
rradius 25.7126
rwrist 9.24958
rhand -10.425 -32.8858
rfingers 7.12502
rthumb 15.5744 -62.2787
lclavicle 4.79071e-014 2.14687e-014
lhumerus -25.1512 -9.67475 94.4327
lradius 30.1119
lwrist 12.7005
lhand -25.5404 -22.763
lfingers 7.12502
lthumb 0.989616 7.21446
rfemur 12.4051 -10.8057 20.9431
rtibia 7.1533
rfoot -21.4091 -4.80932
rtoes 10.8398
lfemur -16.7024 6.40318 -3.30725
ltibia 42.5925
lfoot -11.2538 6.55028
ltoes -11.6425
279
root -28.7865 16.8049 2.35356 -118.233 84.1499 -114.416
lowerback 10.1984 1.19432 5.89692
upperback 7.58686 2.42435 3.10907
thorax 2.31444 1.54862 -0.255226
lowerneck -22.8653 0.833161 3.60632
upperneck 20.3563 -1.07031 4.39887
head 10.3254 0.406063 0.826346
rclavicle -3.20043e-014 -3.49861e-014
rhumerus -22.0712 12.6321 -86.9933
rradius 25.5689
rwrist 8.72242
rhand -11.4998 -32.7482
rfingers 7.12502
rthumb 14.539 -62.2187
lclavicle -3.20043e-014 -3.49861e-014
lhumerus -25.3362 -9.45646 94.3416
lradius 30.0801
lwrist 12.2197
lhand -24.3604 -21.47
lfingers 7.12502
lthumb 2.12931 8.49908
rfemur 12.6491 -10.8759 20.7158
rtibia 6.88347
rfoot -21.51 -5.23687
rtoes 9.82263
lfemur -17.2671 5.97985 -3.79841
ltibia 42.0507
lfoot -11.3778 6.36679
ltoes -12.6142
280
root -28.756 16.8131 2.34525 -117.231 84.7153 -113.24
lowerback 10.4789 1.34834 5.53702
upperback 7.64317 2.62198 3.01009
thorax 2.21563 1.63542 -0.18258
lowerneck -22.7674 0.777909 3.64856
upperneck 20.5521 -1.18514 4.50894
head 10.3815 0.378682 0.843334
rclavicle 5.06901e-014 2.38542e-015
rhumerus -22.0799 12.3821 -86.9246
rradius 25.5124
rwrist 8.3067
rhand -11.2216 -33.4304
rfingers 7.12502
rthumb 14.8071 -62.8814
lclavicle 5.06901e-014 2.38542e-015
lhumerus -25.4804 -9.63059 94.3785
lradius 29.8431
lwrist 11.509
lhand -24.062 -20.8189
lfingers 7.12502
lthumb 2.41753 9.1471
rfemur 12.9488 -10.7143 20.0352
rtibia 6.92159
rfoot -21.5199 -5.11674
rtoes 8.87871
lfemur -17.1026 5.96155 -4.48091
ltibia 41.1147
lfoot -11.706 6.46601
ltoes -11.4554
281
root -28.7159 16.8183 2.33484 -115.591 85.1913 -111.774
lowerback 10.3485 1.49363 5.23816
upperback 7.58902 2.77272 2.93314
thorax 2.2232 1.69564 -0.105452
lowerneck -22.9819 0.676613 3.42524
upperneck 20.9665 -1.37427 4.90996
head 10.5805 0.345011 1.00248
rclavicle 2.08724e-014 8.74653e-015
rhumerus -22.0994 11.89 -86.7161
rradius 25.5571
rwrist 8.59434
rhand -10.7035 -33.8005
rfingers 7.12502
rthumb 15.3061 -63.2141
lclavicle 2.08724e-014 8.74653e-015
lhumerus -25.6419 -9.81452 94.3927
lradius 29.6567
lwrist 11.6807
lhand -23.2999 -20.5716
lfingers 7.12502
lthumb 3.15346 9.38479
rfemur 12.9241 -10.3744 19.6126
rtibia 6.84882
rfoot -21.5619 -5.06879
rtoes 9.10988
lfemur -17.2335 5.93232 -5.08467
ltibia 39.9205
lfoot -11.5321 6.79242
ltoes -11.9108
282
root -28.6759 16.8186 2.31356 -108.655 85.7003 -105.189
lowerback 10.0686 1.75937 5.0905
upperback 7.48994 3.08093 2.86999
thorax 2.27847 1.83792 -0.103791
lowerneck -23.2146 0.566864 2.98197
upperneck 21.3505 -1.53477 5.44821
head 10.7765 0.323563 1.25315
rclavicle -1.86858e-014 1.11319e-014
rhumerus -22.0751 11.3882 -86.447
rradius 25.5142
rwrist 9.02746
rhand -10.6761 -33.4338
rfingers 7.12502
rthumb 15.3325 -62.8454
lclavicle -1.86858e-014 1.11319e-014
lhumerus -25.912 -10.1504 94.5771
lradius 29.2962
lwrist 11.0819
lhand -23.2789 -20.152
lfingers 7.12502
lthumb 3.17374 9.80417
rfemur 12.5167 -10.1034 19.2047
rtibia 7.07903
rfoot -21.6569 -4.64775
rtoes 9.5202
lfemur -17.4687 6.12533 -5.60191
ltibia 38.6595
lfoot -11.1845 7.27258
ltoes -14.2598
283
root -28.6369 16.8208 2.29899 -105.481 85.8981 -102.138
lowerback 10.0354 1.88739 5.08464
upperback 7.4212 3.24412 2.86637
thorax 2.23054 1.91468 -0.11738
lowerneck -23.1997 0.479671 2.68353
upperneck 21.5421 -1.65824 5.85745
head 10.8548 0.304791 1.43538
rclavicle -1.19271e-014 2.22639e-014
rhumerus -22.1961 10.9322 -86.2643
rradius 25.5618
rwrist 9.32235
rhand -10.5833 -33.2638
rfingers 7.12502
rthumb 15.4219 -62.6685
lclavicle -1.19271e-014 2.22639e-014
lhumerus -26.1965 -10.3789 94.7043
lradius 28.9769
lwrist 10.5267
lhand -22.64 -18.9505
lfingers 7.12502
lthumb 3.7907 10.9955
rfemur 12.5103 -10.1324 18.9298
rtibia 7.13232
rfoot -21.764 -4.38862
rtoes 9.33054
lfemur -17.5895 5.99195 -5.91086
ltibia 37.4267
lfoot -11.0472 7.48584
ltoes -15.4702
284
root -28.5996 16.8292 2.28931 -105.742 85.8617 -102.449
lowerback 10.1209 1.90398 5.16856
upperback 7.36187 3.28018 2.92046
thorax 2.12488 1.93144 -0.117029
lowerneck -23.1212 0.425654 2.63178
upperneck 21.6109 -1.75357 6.02712
head 10.8713 0.282619 1.49163
rclavicle -3.18055e-014 -3.49861e-014
rhumerus -22.4106 10.7847 -86.2205
rradius 25.793
rwrist 9.03489
rhand -10.6654 -33.3479
rfingers 7.12502
rthumb 15.3428 -62.7587
lclavicle -3.18055e-014 -3.49861e-014
lhumerus -26.4604 -10.8651 94.8487
lradius 28.7907
lwrist 10.5539
lhand -22.3424 -18.9906
lfingers 7.12502
lthumb 4.07818 10.9501
rfemur 12.702 -10.1102 18.9476
rtibia 6.8858
rfoot -21.7059 -4.52559
rtoes 8.85203
lfemur -17.7556 5.653 -6.0083
ltibia 36.2046
lfoot -11.0873 7.62019
ltoes -14.7841
285
root -28.5756 16.8261 2.28412 -99.2543 85.9803 -96.3948
lowerback 10.0239 2.1157 5.039
upperback 7.20038 3.53666 2.93654
thorax 2.00826 2.04387 -0.0498971
lowerneck -23.1222 0.403779 2.77348
upperneck 21.6254 -1.83629 6.0423
head 10.8791 0.261114 1.46126
rclavicle -4.27387e-014 1.19271e-014
rhumerus -22.6214 11.0582 -86.3261
rradius 26.0982
rwrist 8.18812
rhand -10.9103 -33.6562
rfingers 7.12502
rthumb 15.1069 -63.0849
lclavicle -4.27387e-014 1.19271e-014
lhumerus -26.6525 -11.3969 94.938
lradius 28.6662
lwrist 10.7457
lhand -22.7051 -21.1385
lfingers 7.12502
lthumb 3.72788 8.80864
rfemur 12.1641 -9.54186 19.1751
rtibia 6.91877
rfoot -21.6667 -4.79394
rtoes 8.03703
lfemur -18.4023 5.81066 -6.1095
ltibia 35.2703
lfoot -11.336 7.80976
ltoes -12.6109
286
root -28.533 16.8349 2.2752 -104.951 86.1821 -102.102
lowerback 10.1174 2.02971 4.80877
upperback 7.20043 3.41263 2.90233
thorax 1.93945 1.97354 0.0462342
lowerneck -23.115 0.411898 2.88918
upperneck 21.5405 -1.8755 6.10795
head 10.8486 0.259714 1.45861
rclavicle 1.86858e-014 3.33958e-014
rhumerus -22.7577 11.2447 -86.3619
rradius 26.3878
rwrist 7.59376
rhand -10.9352 -33.6638
rfingers 7.12502
rthumb 15.0829 -63.0943
lclavicle 1.86858e-014 3.33958e-014
lhumerus -26.7688 -11.6485 94.9596
lradius 28.3386
lwrist 9.91629
lhand -21.8048 -20.1771
lfingers 7.12502
lthumb 4.59727 9.75298
rfemur 12.5493 -9.15887 19.0164
rtibia 6.51239
rfoot -21.8774 -5.5186
rtoes 7.62988
lfemur -18.6003 5.0692 -6.5919
ltibia 34.133
lfoot -11.4814 7.91376
ltoes -11.3089
